# xmcd CD database file
#
# Track frame offsets:
#	151
#	13996
#	28584
#	44839
#	60829
#	73132
#	87907
#	102210
#	121848
#	134211
#	150322
#
# Disc length: 2224 seconds
#
# Revision: 0
# Processed by: cddbd v1.5.1PL2 Copyright (c) Steve Scherf et al.
# Submitted via: CDex 1.51
#
DISCID=9408ae0b
DTITLE=Peter Pringle - si j'étais magicien
DYEAR=1900
DGENRE=Québécois
TTITLE0=si j'étais magicien
TTITLE1=vers toi
TTITLE2=elle est belle
TTITLE3=l,enfant sans visage
TTITLE4=je viens de découvrir
TTITLE5=sont partis
TTITLE6=comme Clint Eastwood
TTITLE7=l'air un peu Brésil
TTITLE8=madame
TTITLE9=souris-moi
TTITLE10=bandes dessinées
EXTD=
EXTT0=
EXTT1=
EXTT2=
EXTT3=
EXTT4=
EXTT5=
EXTT6=
EXTT7=
EXTT8=
EXTT9=
EXTT10=
PLAYORDER=
